<?xml version="1.0" encoding="utf-8"?>
<!-- Generator: Adobe Illustrator 24.0.0, SVG Export Plug-In . SVG Version: 6.00 Build 0)  -->
<svg version="1.1" id="Layer_1" xmlns="http://www.w3.org/2000/svg" xmlns:xlink="http://www.w3.org/1999/xlink" x="0px" y="0px"
	 viewBox="0 0 335.73 129.91" style="enable-background:new 0 0 335.73 129.91;" xml:space="preserve">
<style type="text/css">
	.st0{fill:#FFFFFF;}
	.st1{fill:#00CFB8;}
</style>
<g>
	<polygon class="st0" points="22.98,117.64 19.67,104.02 13.6,104.02 10.16,117.42 6.76,104.02 0,104.02 7.07,129.91 13.2,129.91 
		16.53,116.07 19.85,129.91 25.98,129.91 33.2,104.02 26.52,104.02 	"/>
	<path class="st0" d="M63.48,107.88c-2.57-2.79-6.07-4.33-9.85-4.33c-7.6,0-13.55,5.95-13.55,13.55c0,7.46,5.92,13.3,13.48,13.3
		c7.29,0,13.22-5.97,13.22-13.3C66.77,113.38,65.7,110.37,63.48,107.88L63.48,107.88z M60.3,117.13c0,4.07-3.01,7.26-6.86,7.26
		c-3.91,0-6.86-3.17-6.86-7.38c0-4.31,2.9-7.44,6.9-7.44C57.43,109.57,60.3,112.75,60.3,117.13z"/>
	<path class="st0" d="M95.01,112.42c0-5.42-3.56-8.41-10.03-8.41h-8.25v25.9h6.4v-8.24l5.7,8.24h7.79l-6.99-9.72
		C93.11,118.98,95.01,116.25,95.01,112.42z M88.53,112.68c0,2.63-2.07,3.18-3.81,3.18h-1.6v-6.32h2.04
		C87.28,109.54,88.53,110.71,88.53,112.68z"/>
	<polygon class="st0" points="117.85,104.02 111.95,113.07 111.95,104.02 105.56,104.02 105.56,129.91 111.95,129.91 111.95,120.67 
		117.77,129.91 125.3,129.91 116.94,116.51 125.36,104.02 	"/>
	<rect x="133.53" y="104.02" class="st0" width="6.4" height="25.9"/>
	<polygon class="st0" points="166.26,104.02 166.26,117.76 157.05,104.02 151.04,104.02 151.04,129.91 157.44,129.91 157.44,115.97 
		166.69,129.91 172.66,129.91 172.66,104.02 	"/>
</g>
<path class="st0" d="M188.9,122.64c0.15,2.8,1.66,4.27,4.35,4.27c2.76,0,4.71-1.69,4.71-4.15c0-2.14-1.1-3.13-4.96-4.42
	c-2.91-1-3.87-1.47-4.97-2.47c-1.25-1.14-1.92-2.76-1.92-4.63c0-4.16,2.98-6.98,7.32-6.98c4.34,0,7.18,2.75,7.28,7.02h-3.08
	c-0.03-1.25-0.18-1.84-0.59-2.53c-0.69-1.07-2.06-1.73-3.63-1.73c-2.43,0-4.16,1.66-4.16,4.01c0,1.18,0.51,2.21,1.39,2.84
	c0.78,0.54,1.44,0.84,3.94,1.72c2.61,0.91,3.87,1.58,4.85,2.64c1.06,1.15,1.65,2.69,1.65,4.34c0,4.24-3.12,7.1-7.72,7.1
	c-3.12,0-5.26-1.1-6.55-3.31c-0.59-1-0.85-2.02-0.85-3.21v-0.52H188.9z"/>
<path class="st0" d="M216.07,129.23h-3.08V104.7h6.55c5.81,0,9.01,2.64,9.01,7.51c0,2.42-0.96,4.6-2.62,5.95
	c-1.43,1.14-3.35,1.69-6.07,1.69h-3.79V129.23z M219.28,117.2c1.33,0,2.2-0.11,3.05-0.44c1.87-0.66,3.09-2.38,3.09-4.48
	s-1.18-3.79-3.13-4.45c-0.95-0.34-1.94-0.48-3.41-0.48h-2.81v9.86H219.28z"/>
<path class="st0" d="M240.82,123.57l-2.24,5.66h-3.21l9.23-24.53h3.68l9.01,24.53h-3.45l-2.03-5.66H240.82z M246.37,108.59
	l-4.63,12.32h9.13L246.37,108.59z"/>
<path class="st0" d="M286.47,125.51c-2.48,2.91-5.19,4.16-8.98,4.16c-3.41,0-6.32-1.25-8.42-3.61c-2.06-2.31-3.28-5.66-3.28-9.09
	c0-7.36,4.97-12.72,11.73-12.72c2.2,0,4.38,0.57,6.15,1.64c1,0.64,1.65,1.22,2.87,2.54l-2.14,1.99c-2.39-2.46-4.2-3.35-6.81-3.35
	c-5,0-8.65,4.16-8.65,9.89c0,5.71,3.72,9.86,8.79,9.86c2.69,0,4.75-1.06,6.66-3.38L286.47,125.51z"/>
<path class="st0" d="M300.54,115.55h9.68v2.64h-9.68v8.39h9.68v2.65h-12.77V104.7h12.77v2.64h-9.68V115.55z"/>
<path class="st0" d="M323.56,122.64c0.14,2.8,1.65,4.27,4.33,4.27c2.76,0,4.71-1.69,4.71-4.15c0-2.14-1.1-3.13-4.96-4.42
	c-2.9-1-3.86-1.47-4.96-2.47c-1.25-1.14-1.92-2.76-1.92-4.63c0-4.16,2.99-6.98,7.32-6.98c4.35,0,7.18,2.75,7.29,7.02h-3.09
	c-0.03-1.25-0.18-1.84-0.59-2.53c-0.69-1.07-2.05-1.73-3.64-1.73c-2.42,0-4.16,1.66-4.16,4.01c0,1.18,0.52,2.21,1.4,2.84
	c0.77,0.54,1.43,0.84,3.93,1.72c2.61,0.91,3.86,1.58,4.86,2.64c1.06,1.15,1.66,2.69,1.66,4.34c0,4.24-3.13,7.1-7.73,7.1
	c-3.12,0-5.25-1.1-6.54-3.31c-0.59-1-0.85-2.02-0.85-3.21v-0.52H323.56z"/>
<g>
	<path class="st1" d="M168.31,88.25L168.31,88.25c-24.37,0-44.12-19.75-44.12-44.12v0C124.19,19.75,143.94,0,168.31,0h0
		c24.37,0,44.12,19.75,44.12,44.12v0C212.44,68.49,192.68,88.25,168.31,88.25z"/>
	<g>
		<polygon class="st0" points="172.09,23.07 149.34,65.33 159.96,65.33 182.72,23.07 		"/>
		<polygon class="st0" points="191.62,23.07 168.86,65.33 179.48,65.33 202.24,23.07 		"/>
		<path class="st0" d="M155.55,33.5c0,5.84-10.58,22.41-10.58,22.41s-10.58-16.57-10.58-22.41c0-5.84,4.74-10.58,10.58-10.58
			C150.81,22.92,155.55,27.65,155.55,33.5z M144.97,29.61c-2.4,0-4.35,1.95-4.35,4.35c0,2.4,1.95,4.35,4.35,4.35
			c2.4,0,4.35-1.95,4.35-4.35C149.32,31.56,147.37,29.61,144.97,29.61z"/>
	</g>
</g>
</svg>
